<svg height="452pt" viewBox="0 -1 452.11009 452" width="452pt" xmlns="http://www.w3.org/2000/svg"><path d="m64.820312 22.410156s6.816407 25.316406 26.445313 26.492188c0 0-26.199219 9.050781-26.640625 28.402344 0 0-5.160156-27.140626-25.851562-28.117188 0 0 24.101562-3.648438 26.046874-26.777344zm0 0" fill="#d7e057"/><path d="m64.621094 80.304688c-1.421875 0-2.667969-1.011719-2.941406-2.433594-.050782-.25-4.992188-24.835938-23.046876-25.6875-1.539062-.070313-2.773437-1.300782-2.855468-2.839844-.078125-1.542969 1.023437-2.890625 2.546875-3.125.882812-.132812 21.789062-3.628906 23.507812-24.0625.121094-1.453125 1.269531-2.601562 2.71875-2.734375 1.46875-.125 2.785157.796875 3.164063 2.203125.066406.234375 6.519531 23.253906 23.730468 24.285156 1.425782.085938 2.59375 1.167969 2.789063 2.585938.199219 1.414062-.636719 2.773437-1.984375 3.242187-.242188.085938-24.238281 8.621094-24.625 25.636719-.035156 1.535156-1.222656 2.792969-2.75 2.921875-.085938.003906-.167969.007813-.253906.007813zm-15.480469-31.457032c7.753906 3.9375 12.460937 11.492188 15.171875 17.753906 4.054688-8.042968 11.882812-13.574218 17.898438-16.855468-8.265626-3.6875-13.566407-11.304688-16.667969-17.449219-3.585938 8.722656-10.539063 13.738281-16.402344 16.550781zm0 0" fill="#3a312a"/><path d="m21.425781 56.371094s4.824219 17.90625 18.703125 18.738281c0 0-18.53125 6.402344-18.84375 20.089844 0 0-3.648437-19.199219-18.28125-19.890625-.003906.003906 17.042969-2.582032 18.421875-18.9375zm0 0" fill="#d7e057"/><path d="m21.28125 98.199219c-1.425781 0-2.671875-1.011719-2.941406-2.4375-.035156-.164063-3.410156-16.886719-15.480469-17.457031-1.542969-.070313-2.7734375-1.296876-2.85546875-2.839844-.07812505-1.539063 1.02343775-2.886719 2.54687475-3.121094.589844-.09375 14.726563-2.484375 15.882813-16.226562.121094-1.453126 1.269531-2.605469 2.71875-2.738282 1.449218-.113281 2.785156.800782 3.164062 2.207032.042969.15625 4.457032 15.839843 15.988282 16.53125 1.429687.085937 2.597656 1.167968 2.792968 2.585937.195313 1.417969-.640625 2.777344-1.992187 3.242187-.160157.058594-16.5625 5.90625-16.824219 17.324219-.03125 1.535157-1.222656 2.792969-2.75 2.921875-.082031.003906-.164062.007813-.25.007813zm-9.035156-23.050781c4.214844 2.660156 7.046875 6.785156 8.894531 10.554687 2.75-4.460937 7.03125-7.742187 10.730469-9.941406-4.574219-2.542969-7.769532-6.703125-9.882813-10.449219-2.351562 4.574219-6.03125 7.753906-9.742187 9.835938zm0 0" fill="#3a312a"/><path d="m21.425781 3.054688s4.824219 17.910156 18.703125 18.742187c0 0-18.53125 6.402344-18.84375 20.089844 0 0-3.648437-19.199219-18.28125-19.886719-.003906-.003906 17.042969-2.585938 18.421875-18.945312zm0 0" fill="#d7e057"/><path d="m21.285156 44.886719c-1.429687 0-2.675781-1.015625-2.945312-2.441407-.035156-.164062-3.410156-16.882812-15.480469-17.453124-1.542969-.070313-2.7734375-1.300782-2.85546875-2.839844-.07812505-1.539063 1.02343775-2.890625 2.54687475-3.125.589844-.09375 14.726563-2.484375 15.882813-16.226563.121094-1.449219 1.269531-2.605469 2.71875-2.7343748 1.464844-.125 2.785156.7968748 3.164062 2.2031248.042969.160157 4.457032 15.839844 15.988282 16.53125 1.429687.082031 2.597656 1.167969 2.792968 2.585938.195313 1.417969-.636718 2.777343-1.992187 3.242187-.160157.058594-16.5625 5.90625-16.824219 17.324219-.03125 1.539063-1.222656 2.796875-2.75 2.921875-.082031.007812-.164062.011719-.246094.011719zm-9.039062-23.054688c4.214844 2.664063 7.046875 6.785157 8.894531 10.554688 2.75-4.460938 7.03125-7.742188 10.730469-9.945313-4.574219-2.535156-7.769532-6.699218-9.882813-10.445312-2.351562 4.578125-6.03125 7.753906-9.742187 9.835937zm0 0" fill="#3a312a"/><path d="m271.769531 24.96875h-91.421875c-25.71875 0-46.640625 20.921875-46.640625 46.640625v39h29.382813v-39c0-9.519531 7.738281-17.257813 17.257812-17.257813h91.421875c9.519531 0 17.257813 7.738282 17.257813 17.257813v39h29.402344v-39c0-25.71875-20.941407-46.640625-46.660157-46.640625zm0 0" fill="#87796f"/><path d="m318.425781 113.609375h-29.398437c-1.660156 0-3-1.34375-3-3v-39c0-7.863281-6.398438-14.257813-14.261719-14.257813h-91.417969c-7.867187 0-14.261718 6.394532-14.261718 14.257813v39c0 1.65625-1.34375 3-3 3h-29.378907c-1.660156 0-3-1.34375-3-3v-39c0-27.371094 22.265625-49.640625 49.640625-49.640625h91.417969c27.382813 0 49.660156 22.273438 49.660156 49.640625v39c0 1.65625-1.339843 3-3 3zm-26.398437-6h23.402344v-36c0-24.0625-19.585938-43.640625-43.660157-43.640625h-91.421875c-24.0625 0-43.640625 19.578125-43.640625 43.640625v36h23.382813v-36c0-11.171875 9.085937-20.257813 20.257812-20.257813h91.421875c11.167969 0 20.257813 9.085938 20.257813 20.257813zm0 0" fill="#3a312a"/><path d="m5.273438 321.613281c-.058594 0-.109376-.007812-.167969-.007812v100.1875c0 14.480469 11.742187 26.222656 26.21875 26.222656h391.5625c14.480469 0 26.21875-11.742187 26.21875-26.222656v-284.980469c0-14.480469-11.738281-26.199219-26.21875-26.199219h-391.558594c-14.480469 0-26.21875 11.71875-26.21875 26.199219v158.277344c.058594-.003906.109375-.007813.167969-.007813v26.53125zm0 0" fill="#f16c7a"/><path d="m422.886719 451.011719h-391.558594c-16.113281 0-29.21875-13.105469-29.21875-29.21875v-100.191407c0-.8125.328125-1.589843.914063-2.15625.585937-.566406 1.359374-.898437 2.1875-.839843.050781 0 .167968.007812.210937.011719 1.660156 0 2.925781 1.339843 2.925781 2.996093 0 .410157-.085937.800781-.242187 1.152344v99.027344c0 12.804687 10.417969 23.21875 23.21875 23.21875h391.5625c12.804687 0 23.21875-10.414063 23.21875-23.21875v-284.976563c0-12.792968-10.414063-23.203125-23.21875-23.203125h-391.558594c-12.804687 0-23.21875 10.40625-23.21875 23.203125v157.585938c.050781.214844.082031.449218.082031.683594 0 1.65625-1.257812 2.996093-2.914062 2.996093-1.660156 0-3.167969-1.335937-3.167969-2.992187v-158.273438c0-16.105468 13.109375-29.203125 29.222656-29.203125h391.558594c16.113281 0 29.21875 13.097657 29.21875 29.203125v284.976563c0 16.113281-13.109375 29.21875-29.222656 29.21875zm0 0" fill="#3a312a"/><path d="m322.609375 304.25 40.257813-36.578125 30.742187-27.917969 55.5-50.421875v-52.519531c0-14.460938-11.742187-26.199219-26.203125-26.199219h-391.578125c-14.480469 0-26.21875 11.738281-26.21875 26.21875v52.5l55.5 50.421875 30.738281 27.917969 103.820313 94.320313c18.121093 16.460937 45.761719 16.460937 63.878906 0l44.066406-40.035157zm0 0" fill="#8ac6dd"/><path d="m227.105469 377.402344c-12.136719 0-24.277344-4.394532-33.957031-13.1875l-190.058594-172.660156c-.625-.566407-.980469-1.375-.980469-2.21875v-52.5c0-16.117188 13.105469-29.222657 29.21875-29.222657h391.578125c16.101562 0 29.203125 13.101563 29.203125 29.203125v52.519532c0 .847656-.355469 1.652343-.984375 2.21875l-126.5 114.917968c-1.226562 1.117188-3.121094 1.027344-4.238281-.203125-1.113281-1.226562-1.019531-3.121093.207031-4.238281l125.515625-114.023438v-51.191406c0-12.792968-10.40625-23.203125-23.199219-23.203125h-391.582031c-12.804687 0-23.21875 10.414063-23.21875 23.21875v51.171875l189.078125 171.769532c17.054688 15.492187 42.785156 15.492187 59.84375 0l44.066406-40.035157c1.226563-1.113281 3.125-1.027343 4.238282.203125 1.113281 1.226563 1.023437 3.125-.203126 4.238282l-44.070312 40.035156c-9.679688 8.789062-21.816406 13.1875-33.957031 13.1875zm0 0" fill="#3a312a"/><path d="m91.347656 110.613281v157.058594l-30.738281-27.917969v-129.140625zm0 0" fill="#f16c7a"/><path d="m91.347656 270.671875c-.730468 0-1.457031-.265625-2.015625-.78125l-30.742187-27.917969c-.625-.566406-.984375-1.375-.984375-2.21875v-129.140625c0-1.65625 1.34375-3 3-3h30.742187c1.65625 0 3 1.34375 3 3v157.058594c0 1.1875-.703125 2.265625-1.789062 2.746094-.386719.171875-.800782.253906-1.210938.253906zm-27.738281-32.246094 24.738281 22.46875v-147.28125h-24.738281zm0 0" fill="#3a312a"/><path d="m393.609375 110.613281v129.140625l-30.742187 27.917969v-157.058594zm0 0" fill="#f16c7a"/><path d="m362.867188 270.671875c-.410157 0-.824219-.082031-1.214844-.253906-1.085938-.480469-1.785156-1.558594-1.785156-2.746094v-157.058594c0-1.65625 1.34375-3 3-3h30.742187c1.65625 0 3 1.34375 3 3v129.140625c0 .84375-.359375 1.652344-.984375 2.21875l-30.742188 27.917969c-.5625.515625-1.28125.78125-2.015624.78125zm3-157.058594v147.285157l24.742187-22.472657v-124.8125zm0 0" fill="#3a312a"/><path d="m236.496094 134.503906c-50.382813-5.195312-95.429688 31.441406-100.625 81.820313-5.191406 50.378906 31.441406 95.429687 81.824218 100.621093 50.378907 5.191407 95.429688-31.441406 100.621094-81.820312 5.191406-50.382812-31.441406-95.429688-81.820312-100.621094zm0 0" fill="#87796f"/><path d="m227.109375 320.429688c-52.222656 0-94.710937-42.488282-94.710937-94.710938 0-52.21875 42.488281-94.707031 94.710937-94.707031s94.707031 42.488281 94.707031 94.707031c-.003906 52.222656-42.484375 94.710938-94.707031 94.710938zm0-183.417969c-48.914063 0-88.710937 39.792969-88.710937 88.707031s39.796874 88.710938 88.710937 88.710938 88.707031-39.796876 88.707031-88.710938c-.003906-48.914062-39.796875-88.707031-88.707031-88.707031zm0 0" fill="#3a312a"/><path d="m299.289062 214.707031c-6.082031-39.851562-43.320312-67.226562-83.175781-61.144531-39.851562 6.082031-67.226562 43.320312-61.144531 83.175781 6.082031 39.851563 43.320312 67.226563 83.175781 61.144531 39.851563-6.082031 67.226563-43.320312 61.144531-83.175781zm0 0" fill="#d6df58"/><path d="m227.109375 301.710938c-41.902344 0-75.992187-34.089844-75.992187-75.992188 0-41.898438 34.089843-75.988281 75.992187-75.988281s75.992187 34.089843 75.992187 75.988281c0 41.902344-34.089843 75.992188-75.992187 75.992188zm0-145.980469c-38.59375 0-69.992187 31.398437-69.992187 69.988281 0 38.597656 31.398437 69.992188 69.992187 69.992188s69.992187-31.394532 69.992187-69.992188c0-38.589844-31.398437-69.988281-69.992187-69.988281zm0 0" fill="#3a312a"/><path d="m219.707031 282.699219v-13.265625c-9.359375-.421875-18.433593-2.933594-23.742187-6.003906l4.1875-16.339844c5.867187 3.210937 14.105468 6.144531 23.183594 6.144531 7.960937 0 13.40625-3.070313 13.40625-8.65625 0-5.308594-4.46875-8.660156-14.804688-12.152344-14.945312-5.027343-25.136719-12.007812-25.136719-25.558593 0-12.289063 8.65625-21.925782 23.601563-24.855469v-13.269531h13.6875v12.289062c9.355468.421875 15.640625 2.375 20.25 4.609375l-4.050782 15.78125c-3.632812-1.539063-10.058593-4.75-20.109374-4.75-9.078126 0-12.011719 3.910156-12.011719 7.820313 0 4.609374 4.886719 7.542968 16.757812 12.011718 16.621094 5.863282 23.324219 13.542969 23.324219 26.113282 0 12.429687-8.800781 23.046874-24.859375 25.835937v14.246094zm0 0" fill="#87796f"/><path d="m233.390625 285.699219h-13.683594c-1.660156 0-3-1.34375-3-3v-10.457031c-8.441406-.742188-16.765625-3.042969-22.246093-6.214844-1.164063-.671875-1.738282-2.039063-1.402344-3.339844l4.191406-16.34375c.226562-.898438.859375-1.636719 1.710938-2.007812.847656-.367188 1.824218-.324219 2.636718.121093 3.9375 2.160157 12 5.78125 21.742188 5.78125 2.441406 0 10.40625-.410156 10.40625-5.660156 0-3-2.171875-5.730469-12.765625-9.308594-12.648438-4.253906-27.175781-11.332031-27.175781-28.398437 0-13.28125 8.976562-23.550782 23.601562-27.257813v-10.867187c0-1.65625 1.34375-3 3-3h13.6875c1.65625 0 3 1.34375 3 3v9.46875c7.128906.585937 13.222656 2.140625 18.554688 4.726562 1.285156.625 1.953124 2.0625 1.601562 3.445313l-4.050781 15.785156c-.21875.84375-.792969 1.550781-1.578125 1.941406-.78125.390625-1.695313.417969-2.5.074219l-1.046875-.449219c-3.722657-1.621093-9.347657-4.0625-17.894531-4.0625-3.367188 0-9.011719.625-9.011719 4.820313 0 2.640625 4.015625 5.136718 14.816406 9.203125 17.691406 6.242187 25.265625 14.898437 25.265625 28.921875 0 13.863281-9.667969 24.746094-24.859375 28.289062v11.792969c0 1.652344-1.339844 2.996094-3 2.996094zm-10.683594-6h7.683594v-11.246094c0-1.457031 1.050781-2.703125 2.488281-2.953125 13.800782-2.402344 22.375-11.167969 22.375-22.882812 0-11.339844-5.980468-17.871094-21.324218-23.285157-11.007813-4.144531-18.757813-7.621093-18.757813-14.839843 0-2.539063 1.082031-10.820313 15.007813-10.820313 8.144531 0 14.054687 1.972656 18.074218 3.617187l2.550782-9.9375c-4.792969-1.941406-10.332032-3.03125-16.847657-3.324218-1.601562-.070313-2.867187-1.390625-2.867187-2.996094v-9.289062h-7.6875v10.265624c0 1.433594-1.011719 2.667969-2.421875 2.945313-13.261719 2.601563-21.179688 10.792969-21.179688 21.914063 0 10.472656 6.90625 17.269531 23.09375 22.714843 8.753907 2.953125 16.847657 6.816407 16.847657 14.992188 0 7.191406-6.285157 11.660156-16.40625 11.660156-8.730469 0-16.238282-2.539063-21.203126-4.804687l-2.675781 10.4375c5.308594 2.488281 13.007813 4.238281 20.378907 4.570312 1.601562.070312 2.867187 1.390625 2.867187 2.996094v10.265625zm0 0" fill="#3a312a"/><path d="m446.109375 196.113281v225.679688c0 12.800781-10.421875 23.21875-23.222656 23.21875h-17.820313c8.339844-4.378907 14.042969-13.140625 14.042969-23.21875v-201.160157zm0 0" fill="#d34e5c"/><path d="m446.109375 136.8125v51.199219l-27 24.519531v-75.71875c0-10.078125-5.703125-18.820312-14.042969-23.199219h17.839844c12.800781 0 23.203125 10.398438 23.203125 23.199219zm0 0" fill="#6ca8bf"/></svg>